<svg width="48" height="48" viewBox="0 0 48 48" fill="none" xmlns="http://www.w3.org/2000/svg">
<rect opacity="0.08" x="0.5" y="0.5" width="47" height="47" rx="3.5" fill="#435AF2" stroke="#435AF2"/>
<g clip-path="url(#clip0_22_7141)">
<path d="M33.0385 17.2598C30.0975 14.9461 27.2797 15.0108 27.2797 15.0108L26.9923 15.3587C30.4876 16.4508 32.1121 18.0688 32.1121 18.0688C27.1104 15.1753 20.7408 15.1969 15.5312 18.0688C15.5312 18.0688 17.2198 16.3618 20.9204 15.2589L20.7151 14.9892C20.7151 14.9892 17.923 14.9353 14.9615 17.2598C14.9615 17.2598 12 22.8553 12 29.7506C12 29.7506 13.7271 32.8625 18.272 33.0135C18.272 33.0135 19.0419 32.0616 19.6501 31.2418C17.0402 30.4328 16.0573 28.7124 16.0573 28.7124C17.6979 29.7911 19.5191 30.5315 21.4234 30.894C24.7879 31.622 28.9735 30.8751 32.0992 28.7124C32.0992 28.7124 31.0727 30.4625 28.3755 31.2634C28.9915 32.0724 29.7331 32.9919 29.7331 32.9919C34.278 32.8409 36.0051 29.729 36.0051 29.756C36 22.8445 33.0385 17.2598 33.0385 17.2598ZM20.166 27.7281C19.0137 27.7281 18.0667 26.671 18.0667 25.3524C18.1514 22.1946 22.2036 22.2054 22.2626 25.3497C22.2626 26.671 21.3362 27.7281 20.166 27.7281ZM27.6698 27.7281C26.5201 27.7281 25.5731 26.671 25.5731 25.3524C25.6655 22.2027 29.6638 22.2 29.769 25.3524C29.769 26.671 28.8426 27.7281 27.6698 27.7281Z" fill="#435AF2"/>
</g>
<defs>
<clipPath id="clip0_22_7141">
<rect width="24" height="18" fill="white" transform="translate(12 15)"/>
</clipPath>
</defs>
</svg>
