<svg width="27" height="29" viewBox="0 0 27 29" fill="none" xmlns="http://www.w3.org/2000/svg">
<g filter="url(#filter0_d_20_2647)">
<path d="M17.474 5.40795L19.592 7.52495L17.474 5.40795ZM18.836 3.54295L13.109 9.26995C12.8131 9.56545 12.6113 9.94193 12.529 10.3519L12 12.9999L14.648 12.4699C15.058 12.3879 15.434 12.1869 15.73 11.8909L21.457 6.16395C21.6291 5.99185 21.7656 5.78754 21.8588 5.56269C21.9519 5.33783 21.9998 5.09683 21.9998 4.85345C21.9998 4.61007 21.9519 4.36907 21.8588 4.14421C21.7656 3.91936 21.6291 3.71505 21.457 3.54295C21.2849 3.37085 21.0806 3.23434 20.8557 3.1412C20.6309 3.04806 20.3899 3.00012 20.1465 3.00012C19.9031 3.00012 19.6621 3.04806 19.4373 3.1412C19.2124 3.23434 19.0081 3.37085 18.836 3.54295V3.54295Z" stroke="#435AF2" stroke-width="1.5" stroke-linecap="round" stroke-linejoin="round"/>
<path d="M20 15V18C20 18.5304 19.7893 19.0391 19.4142 19.4142C19.0391 19.7893 18.5304 20 18 20H7C6.46957 20 5.96086 19.7893 5.58579 19.4142C5.21071 19.0391 5 18.5304 5 18V7C5 6.46957 5.21071 5.96086 5.58579 5.58579C5.96086 5.21071 6.46957 5 7 5H10" stroke="#435AF2" stroke-width="1.5" stroke-linecap="round" stroke-linejoin="round"/>
</g>
<defs>
<filter id="filter0_d_20_2647" x="-3" y="0" width="32" height="32" filterUnits="userSpaceOnUse" color-interpolation-filters="sRGB">
<feFlood flood-opacity="0" result="BackgroundImageFix"/>
<feColorMatrix in="SourceAlpha" type="matrix" values="0 0 0 0 0 0 0 0 0 0 0 0 0 0 0 0 0 0 127 0" result="hardAlpha"/>
<feOffset dy="4"/>
<feGaussianBlur stdDeviation="2"/>
<feComposite in2="hardAlpha" operator="out"/>
<feColorMatrix type="matrix" values="0 0 0 0 0 0 0 0 0 0 0 0 0 0 0 0 0 0 0.25 0"/>
<feBlend mode="normal" in2="BackgroundImageFix" result="effect1_dropShadow_20_2647"/>
<feBlend mode="normal" in="SourceGraphic" in2="effect1_dropShadow_20_2647" result="shape"/>
</filter>
</defs>
</svg>
