<svg width="48" height="48" viewBox="0 0 48 48" fill="none" xmlns="http://www.w3.org/2000/svg">
<rect opacity="0.08" x="0.5" y="0.5" width="47" height="47" rx="3.5" fill="#435AF2" stroke="#435AF2"/>
<path d="M36 17.2565C35.1456 17.6901 33.8526 17.8959 33.4291 17.9547C33.4291 17.9327 33.4216 17.918 33.4216 17.8959C34.8658 17.0139 35.3119 15.3675 35.3119 15.3675C34.4121 15.8673 33.6181 16.1466 33.0208 16.301C32.6881 16.3892 32.4083 16.4333 32.2117 16.4627C31.3043 15.5586 30.0416 15 28.6427 15C25.8904 15 23.6522 17.1683 23.6522 19.8511C23.6522 19.9466 23.6522 20.0422 23.6597 20.1377C23.6749 20.3729 23.7051 20.6008 23.7505 20.8213C22.4197 20.7992 17.603 20.4023 13.6106 15.8967C13.6106 15.8967 11.3875 19.6673 15.1229 22.2398C15.1229 22.2398 13.6106 22.1957 12.8091 21.6445C12.8091 21.6445 12.5747 25.2754 16.8771 26.4221C16.8771 26.4221 15.3648 26.7896 14.6087 26.4662C14.6087 26.4662 15.3648 29.5899 19.1456 29.8178C19.1456 29.8178 16.431 32.2286 12 31.8832C14.1777 33.2209 16.7637 34 19.5312 34C27.3195 34 33.6333 27.8627 33.6333 20.2921C33.6333 20.1965 33.6333 20.101 33.6333 20.0054C33.6333 19.9466 33.6333 19.8952 33.6333 19.8364C33.6333 19.7996 33.6333 19.7555 33.6333 19.7188C35.0699 18.8 36 17.2565 36 17.2565Z" fill="#435AF2"/>
</svg>
