<svg width="49" height="48" viewBox="0 0 49 48" fill="none" xmlns="http://www.w3.org/2000/svg">
<circle cx="24.333" cy="24" r="24" fill="#435AF2"/>
<path d="M30 31C29.4696 31 28.9609 30.7893 28.5858 30.4142C28.2107 30.0391 28 29.5304 28 29C28 27.89 28.89 27 30 27C30.5304 27 31.0391 27.2107 31.4142 27.5858C31.7893 27.9609 32 28.4696 32 29C32 29.5304 31.7893 30.0391 31.4142 30.4142C31.0391 30.7893 30.5304 31 30 31ZM30 25C28.9391 25 27.9217 25.4214 27.1716 26.1716C26.4214 26.9217 26 27.9391 26 29C26 30.0609 26.4214 31.0783 27.1716 31.8284C27.9217 32.5786 28.9391 33 30 33C31.0609 33 32.0783 32.5786 32.8284 31.8284C33.5786 31.0783 34 30.0609 34 29C34 27.9391 33.5786 26.9217 32.8284 26.1716C32.0783 25.4214 31.0609 25 30 25ZM24 23.1C23.7505 23.1 23.5034 23.1491 23.2729 23.2446C23.0424 23.3401 22.8329 23.4801 22.6565 23.6565C22.4801 23.8329 22.3401 24.0424 22.2446 24.2729C22.1491 24.5034 22.1 24.7505 22.1 25C22.1 25.5039 22.3002 25.9872 22.6565 26.3435C23.0128 26.6998 23.4961 26.9 24 26.9C24.5039 26.9 24.9872 26.6998 25.3435 26.3435C25.6998 25.9872 25.9 25.5039 25.9 25C25.9 24.7505 25.8509 24.5034 25.7554 24.2729C25.6599 24.0424 25.5199 23.8329 25.3435 23.6565C25.1671 23.4801 24.9576 23.3401 24.7271 23.2446C24.4966 23.1491 24.2495 23.1 24 23.1ZM18 31C17.4696 31 16.9609 30.7893 16.5858 30.4142C16.2107 30.0391 16 29.5304 16 29C16 27.89 16.89 27 18 27C18.5304 27 19.0391 27.2107 19.4142 27.5858C19.7893 27.9609 20 28.4696 20 29C20 29.5304 19.7893 30.0391 19.4142 30.4142C19.0391 30.7893 18.5304 31 18 31ZM18 25C16.9391 25 15.9217 25.4214 15.1716 26.1716C14.4214 26.9217 14 27.9391 14 29C14 30.0609 14.4214 31.0783 15.1716 31.8284C15.9217 32.5786 16.9391 33 18 33C19.0609 33 20.0783 32.5786 20.8284 31.8284C21.5786 31.0783 22 30.0609 22 29C22 27.9391 21.5786 26.9217 20.8284 26.1716C20.0783 25.4214 19.0609 25 18 25ZM24 16C24.5304 16 25.0391 16.2107 25.4142 16.5858C25.7893 16.9609 26 17.4696 26 18C26 18.5304 25.7893 19.0391 25.4142 19.4142C25.0391 19.7893 24.5304 20 24 20C23.4696 20 22.9609 19.7893 22.5858 19.4142C22.2107 19.0391 22 18.5304 22 18C22 16.89 22.89 16 24 16ZM24 22C25.0609 22 26.0783 21.5786 26.8284 20.8284C27.5786 20.0783 28 19.0609 28 18C28 16.9391 27.5786 15.9217 26.8284 15.1716C26.0783 14.4214 25.0609 14 24 14C22.9391 14 21.9217 14.4214 21.1716 15.1716C20.4214 15.9217 20 16.9391 20 18C20 19.0609 20.4214 20.0783 21.1716 20.8284C21.9217 21.5786 22.9391 22 24 22Z" fill="white"/>
</svg>
