<svg width="48" height="48" viewBox="0 0 48 48" fill="none" xmlns="http://www.w3.org/2000/svg">
<circle cx="24" cy="24" r="24" fill="#435AF2"/>
<path d="M31.5 15C30.8371 15.0005 30.2015 15.2641 29.7328 15.7328C29.2641 16.2015 29.0005 16.8371 29 17.5C29 17.857 29.078 18.196 29.214 18.505L27.259 20.704C26.5949 20.2456 25.807 20 25 20C24.26 20 23.576 20.216 22.981 20.566L20.707 18.293L20.684 18.316C20.88 17.918 21 17.475 21 17C21 16.4067 20.8241 15.8266 20.4944 15.3333C20.1648 14.8399 19.6962 14.4554 19.1481 14.2284C18.5999 14.0013 17.9967 13.9419 17.4147 14.0576C16.8328 14.1734 16.2982 14.4591 15.8787 14.8787C15.4591 15.2982 15.1734 15.8328 15.0576 16.4147C14.9419 16.9967 15.0013 17.5999 15.2284 18.1481C15.4554 18.6962 15.8399 19.1648 16.3333 19.4944C16.8266 19.8241 17.4067 20 18 20C18.475 20 18.917 19.88 19.316 19.684L19.293 19.707L21.567 21.98C21.1996 22.59 21.0038 23.2879 21 24C21 24.997 21.38 25.899 21.985 26.601L19.408 29.177C19.1192 29.0614 18.8111 29.0013 18.5 29C17.122 29 16 30.121 16 31.5C16 32.879 17.122 34 18.5 34C19.878 34 21 32.879 21 31.5C21 31.179 20.934 30.874 20.823 30.591L23.661 27.753C24.082 27.903 24.528 28 25 28C27.206 28 29 26.206 29 24C29 23.364 28.837 22.771 28.572 22.236L30.689 19.853C30.945 19.941 31.215 20 31.5 20C32.879 20 34 18.879 34 17.5C34 16.121 32.879 15 31.5 15ZM25 26C23.897 26 23 25.103 23 24C23 22.897 23.897 22 25 22C26.103 22 27 22.897 27 24C27 25.103 26.103 26 25 26Z" fill="white"/>
</svg>
