<svg width="49" height="48" viewBox="0 0 49 48" fill="none" xmlns="http://www.w3.org/2000/svg">
<circle cx="24.667" cy="24" r="24" fill="#435AF2"/>
<g clip-path="url(#clip0_1394_81)">
<path d="M25 26.4C24.5253 26.4 24.0613 26.2592 23.6666 25.9955C23.272 25.7318 22.9643 25.357 22.7827 24.9184C22.601 24.4799 22.5535 23.9973 22.6461 23.5318C22.7387 23.0662 22.9673 22.6386 23.3029 22.3029C23.6386 21.9673 24.0662 21.7387 24.5318 21.6461C24.9973 21.5535 25.4799 21.601 25.9184 21.7827C26.357 21.9643 26.7318 22.272 26.9955 22.6666C27.2592 23.0613 27.4 23.5253 27.4 24C27.3992 24.6363 27.1461 25.2463 26.6962 25.6962C26.2463 26.1461 25.6363 26.3992 25 26.4ZM25 22.8C24.7627 22.8 24.5307 22.8704 24.3333 23.0022C24.136 23.1341 23.9822 23.3215 23.8913 23.5408C23.8005 23.7601 23.7768 24.0013 23.8231 24.2341C23.8694 24.4669 23.9837 24.6807 24.1515 24.8485C24.3193 25.0164 24.5331 25.1306 24.7659 25.1769C24.9987 25.2232 25.2399 25.1995 25.4592 25.1087C25.6785 25.0178 25.8659 24.864 25.9978 24.6667C26.1296 24.4693 26.2 24.2373 26.2 24C26.1997 23.6818 26.0732 23.3768 25.8482 23.1518C25.6232 22.9268 25.3182 22.8003 25 22.8ZM18.4 26.4C17.9253 26.4 17.4613 26.2592 17.0666 25.9955C16.672 25.7318 16.3643 25.357 16.1827 24.9184C16.001 24.4799 15.9535 23.9973 16.0461 23.5318C16.1387 23.0662 16.3673 22.6386 16.7029 22.3029C17.0386 21.9673 17.4662 21.7387 17.9318 21.6461C18.3973 21.5535 18.8799 21.601 19.3184 21.7827C19.757 21.9643 20.1318 22.272 20.3955 22.6666C20.6592 23.0613 20.8 23.5253 20.8 24C20.7992 24.6363 20.5461 25.2463 20.0962 25.6962C19.6463 26.1461 19.0363 26.3992 18.4 26.4ZM18.4 22.8C18.1627 22.8 17.9307 22.8704 17.7333 23.0022C17.536 23.1341 17.3822 23.3215 17.2913 23.5408C17.2005 23.7601 17.1768 24.0013 17.2231 24.2341C17.2694 24.4669 17.3836 24.6807 17.5515 24.8485C17.7193 25.0164 17.9331 25.1306 18.1659 25.1769C18.3987 25.2232 18.6399 25.1995 18.8592 25.1087C19.0785 25.0178 19.2659 24.864 19.3978 24.6667C19.5296 24.4693 19.6 24.2373 19.6 24C19.5997 23.6818 19.4732 23.3768 19.2482 23.1518C19.0232 22.9268 18.7182 22.8003 18.4 22.8ZM21.4 33C20.9253 33 20.4613 32.8592 20.0666 32.5955C19.672 32.3318 19.3643 31.957 19.1827 31.5184C19.001 31.0799 18.9535 30.5973 19.0461 30.1318C19.1387 29.6662 19.3673 29.2386 19.7029 28.9029C20.0386 28.5673 20.4662 28.3387 20.9318 28.2461C21.3973 28.1535 21.8799 28.201 22.3184 28.3827C22.757 28.5643 23.1318 28.872 23.3955 29.2666C23.6592 29.6613 23.8 30.1253 23.8 30.6C23.7992 31.2363 23.5461 31.8463 23.0962 32.2962C22.6463 32.7461 22.0363 32.9992 21.4 33ZM21.4 29.4C21.1627 29.4 20.9307 29.4704 20.7333 29.6022C20.536 29.7341 20.3822 29.9215 20.2913 30.1408C20.2005 30.3601 20.1768 30.6013 20.2231 30.8341C20.2694 31.0669 20.3837 31.2807 20.5515 31.4485C20.7193 31.6164 20.9331 31.7306 21.1659 31.7769C21.3987 31.8232 21.6399 31.7995 21.8592 31.7087C22.0785 31.6178 22.2659 31.464 22.3978 31.2667C22.5296 31.0693 22.6 30.8373 22.6 30.6C22.5997 30.2818 22.4732 29.9768 22.2482 29.7518C22.0232 29.5268 21.7182 29.4003 21.4 29.4ZM28.6 33C28.1253 33 27.6613 32.8592 27.2666 32.5955C26.872 32.3318 26.5643 31.957 26.3827 31.5184C26.201 31.0799 26.1535 30.5973 26.2461 30.1318C26.3387 29.6662 26.5673 29.2386 26.9029 28.9029C27.2386 28.5673 27.6662 28.3387 28.1318 28.2461C28.5973 28.1535 29.0799 28.201 29.5184 28.3827C29.957 28.5643 30.3318 28.872 30.5955 29.2666C30.8592 29.6613 31 30.1253 31 30.6C30.9992 31.2363 30.7461 31.8463 30.2962 32.2962C29.8463 32.7461 29.2363 32.9992 28.6 33ZM28.6 29.4C28.3627 29.4 28.1307 29.4704 27.9333 29.6022C27.736 29.7341 27.5822 29.9215 27.4913 30.1408C27.4005 30.3601 27.3768 30.6013 27.4231 30.8341C27.4694 31.0669 27.5836 31.2807 27.7515 31.4485C27.9193 31.6164 28.1331 31.7306 28.3659 31.7769C28.5987 31.8232 28.8399 31.7995 29.0592 31.7087C29.2785 31.6178 29.4659 31.464 29.5978 31.2667C29.7296 31.0693 29.8 30.8373 29.8 30.6C29.7997 30.2818 29.6732 29.9768 29.4482 29.7518C29.2232 29.5268 28.9182 29.4003 28.6 29.4ZM31.6 26.4C31.1253 26.4 30.6613 26.2592 30.2666 25.9955C29.872 25.7318 29.5643 25.357 29.3827 24.9184C29.201 24.4799 29.1535 23.9973 29.2461 23.5318C29.3387 23.0662 29.5673 22.6386 29.9029 22.3029C30.2386 21.9673 30.6662 21.7387 31.1318 21.6461C31.5973 21.5535 32.0799 21.601 32.5184 21.7827C32.957 21.9643 33.3318 22.272 33.5955 22.6666C33.8592 23.0613 34 23.5253 34 24C33.9992 24.6363 33.7461 25.2463 33.2962 25.6962C32.8463 26.1461 32.2363 26.3992 31.6 26.4ZM31.6 22.8C31.3627 22.8 31.1307 22.8704 30.9333 23.0022C30.736 23.1341 30.5822 23.3215 30.4913 23.5408C30.4005 23.7601 30.3768 24.0013 30.4231 24.2341C30.4694 24.4669 30.5836 24.6807 30.7515 24.8485C30.9193 25.0164 31.1331 25.1306 31.3659 25.1769C31.5987 25.2232 31.8399 25.1995 32.0592 25.1087C32.2785 25.0178 32.4659 24.864 32.5978 24.6667C32.7296 24.4693 32.8 24.2373 32.8 24C32.7997 23.6818 32.6732 23.3768 32.4482 23.1518C32.2232 22.9268 31.9182 22.8003 31.6 22.8ZM28.6 19.8C28.1253 19.8 27.6613 19.6592 27.2666 19.3955C26.872 19.1318 26.5643 18.757 26.3827 18.3184C26.201 17.8799 26.1535 17.3973 26.2461 16.9318C26.3387 16.4662 26.5673 16.0386 26.9029 15.7029C27.2386 15.3673 27.6662 15.1387 28.1318 15.0461C28.5973 14.9535 29.0799 15.001 29.5184 15.1827C29.957 15.3643 30.3318 15.672 30.5955 16.0666C30.8592 16.4613 31 16.9253 31 17.4C30.9992 18.0363 30.7461 18.6463 30.2962 19.0962C29.8463 19.5461 29.2363 19.7992 28.6 19.8ZM28.6 16.2C28.3627 16.2 28.1307 16.2704 27.9333 16.4022C27.736 16.5341 27.5822 16.7215 27.4913 16.9408C27.4005 17.1601 27.3768 17.4013 27.4231 17.6341C27.4694 17.8669 27.5836 18.0807 27.7515 18.2485C27.9193 18.4164 28.1331 18.5306 28.3659 18.5769C28.5987 18.6232 28.8399 18.5995 29.0592 18.5087C29.2785 18.4178 29.4659 18.264 29.5978 18.0667C29.7296 17.8693 29.8 17.6373 29.8 17.4C29.7997 17.0818 29.6732 16.7768 29.4482 16.5518C29.2232 16.3268 28.9182 16.2003 28.6 16.2ZM21.4 19.8C20.9253 19.8 20.4613 19.6592 20.0666 19.3955C19.672 19.1318 19.3643 18.757 19.1827 18.3184C19.001 17.8799 18.9535 17.3973 19.0461 16.9318C19.1387 16.4662 19.3673 16.0386 19.7029 15.7029C20.0386 15.3673 20.4662 15.1387 20.9318 15.0461C21.3973 14.9535 21.8799 15.001 22.3184 15.1827C22.757 15.3643 23.1318 15.672 23.3955 16.0666C23.6592 16.4613 23.8 16.9253 23.8 17.4C23.7992 18.0363 23.5461 18.6463 23.0962 19.0962C22.6463 19.5461 22.0363 19.7992 21.4 19.8ZM21.4 16.2C21.1627 16.2 20.9307 16.2704 20.7333 16.4022C20.536 16.5341 20.3822 16.7215 20.2913 16.9408C20.2005 17.1601 20.1768 17.4013 20.2231 17.6341C20.2694 17.8669 20.3837 18.0807 20.5515 18.2485C20.7193 18.4164 20.9331 18.5306 21.1659 18.5769C21.3987 18.6232 21.6399 18.5995 21.8592 18.5087C22.0785 18.4178 22.2659 18.264 22.3978 18.0667C22.5296 17.8693 22.6 17.6373 22.6 17.4C22.5997 17.0818 22.4732 16.7768 22.2482 16.5518C22.0232 16.3268 21.7182 16.2003 21.4 16.2Z" fill="white"/>
</g>
<defs>
<clipPath id="clip0_1394_81">
<rect width="24" height="24" fill="white" transform="translate(13 12)"/>
</clipPath>
</defs>
</svg>
