<svg width="48" height="48" viewBox="0 0 48 48" fill="none" xmlns="http://www.w3.org/2000/svg">
<rect opacity="0.12" width="48" height="48" rx="24" fill="#435AF2"/>
<path d="M13.5079 20.2344C13.4423 18.9318 13.7869 17.6452 14.4841 16.5665L14.6658 16.3012L14.6808 16.2867L14.8069 16.1387L14.939 15.9876L14.954 15.9721C15.2062 15.7135 15.4854 15.4861 15.7866 15.292L15.8717 15.2381L15.9568 15.1881L16.1569 15.0729C16.238 15.0344 16.326 14.9888 16.4071 14.9503C16.4661 14.9275 16.5252 14.8974 16.5842 14.8745C16.6953 14.8278 16.8134 14.7821 16.9315 14.7437C16.9715 14.724 17.0136 14.7084 17.0566 14.698L17.1044 14.6788L17.1567 14.6596C17.6951 14.4987 18.2485 14.3876 18.8079 14.3367L18.75 14.3435V13.1831C18.75 12.7178 19.1253 12.3416 19.5895 12.3416C20.0536 12.3416 20.43 12.7178 20.43 13.1831V16.8508C20.43 17.316 20.0536 17.6933 19.5895 17.6933C19.1253 17.6933 18.75 17.316 18.75 16.8508L18.7501 16.0028C18.199 16.058 17.6579 16.1951 17.1447 16.4123C15.8203 17.0081 15.1887 18.1427 15.1288 19.9408L15.1241 20.2302V20.6819H32.8766V20.2188C32.9107 19.3861 32.7435 18.5575 32.3893 17.8089C32.049 17.1682 31.5046 16.6708 30.8471 16.4009C30.4284 16.2206 29.9898 16.0949 29.5416 16.0263L29.25 15.9908L29.25 16.8465C29.25 17.3098 28.8741 17.685 28.41 17.685C27.9459 17.685 27.57 17.3098 27.57 16.8465L27.57 15.9278L20.4382 15.9284V14.2599L27.57 14.2595L27.57 13.1781C27.5658 12.7149 27.9396 12.3365 28.4037 12.3333C28.8678 12.3302 29.2469 12.7023 29.25 13.1656L29.2507 14.337C29.6583 14.3772 30.0626 14.4484 30.4605 14.5499L30.8561 14.6617C30.8881 14.6679 30.9121 14.6762 30.9562 14.6918C31.0002 14.7074 31.0372 14.723 31.0813 14.7375C31.1984 14.7759 31.3074 14.8216 31.4205 14.8683C31.4856 14.8912 31.5456 14.9213 31.5967 14.9441C31.6847 14.9825 31.7748 15.0282 31.8468 15.0666C31.9209 15.1051 31.992 15.1476 32.054 15.1819C32.1161 15.2162 32.1641 15.2546 32.2161 15.2857C32.4428 15.4321 32.6582 15.5972 32.8594 15.7788L33.0558 15.9658L33.0648 15.9814L33.202 16.127L33.331 16.2804L33.338 16.295C34.0927 17.3387 34.4987 18.6063 34.5 19.905L34.4919 20.2302V20.6819H34.5V29.7285C34.5 33.6735 32.2969 35.6666 27.9306 35.6666H20.0594C15.7031 35.6666 13.5 33.6735 13.5 29.7285V20.6819H13.5079V20.2344ZM28.8019 28.954C28.2611 28.954 27.8305 29.398 27.8305 29.9454C27.8405 30.4927 28.2711 30.9368 28.8019 30.9368C29.3326 30.9368 29.7632 30.4927 29.7632 29.9454C29.7632 29.398 29.3326 28.954 28.8019 28.954ZM24.005 28.9436C23.4642 28.954 23.0336 29.398 23.0336 29.9454C23.0336 30.4927 23.4742 30.9368 24.005 30.9368C24.5358 30.9368 24.9664 30.4927 24.9664 29.9351C24.9564 29.398 24.5358 28.954 24.005 28.9436ZM19.1981 28.9436C18.6574 28.9436 18.2268 29.398 18.2368 29.9454C18.2368 30.4927 18.6674 30.9368 19.1981 30.9368C19.7289 30.9368 20.1595 30.4824 20.1595 29.9351C20.1595 29.3877 19.7289 28.9436 19.1981 28.9436ZM28.8019 24.7198C28.2611 24.7198 27.8405 25.1639 27.8405 25.7112C27.8405 26.2586 28.2711 26.7026 28.8019 26.7026C29.3326 26.7026 29.7632 26.2586 29.7632 25.7112C29.7632 25.1639 29.3326 24.7198 28.8019 24.7198ZM24.005 24.7095C23.4642 24.7198 23.0336 25.1639 23.0336 25.7112C23.0336 26.2586 23.4742 26.7026 24.005 26.7026C24.5358 26.7026 24.9664 26.2586 24.9664 25.7009C24.9664 25.1639 24.5358 24.7198 24.005 24.7095ZM19.2082 24.7095C18.6674 24.7095 18.2368 25.1639 18.2368 25.7112C18.2368 26.2586 18.6674 26.7026 19.1981 26.7026C19.7389 26.7026 20.1695 26.2483 20.1595 25.7009C20.1595 25.1536 19.7289 24.7095 19.2082 24.7095Z" fill="#435AF2"/>
</svg>
