<svg width="48" height="48" viewBox="0 0 48 48" fill="none" xmlns="http://www.w3.org/2000/svg">
<rect opacity="0.12" width="48" height="48" rx="24" fill="#435AF2"/>
<path d="M30.6119 20.724C29.076 14.4 25.056 12.168 24.8879 12.072C24.7993 12.0247 24.7004 12 24.6 12C24.4995 12 24.4006 12.0247 24.312 12.072C24.108 12.192 20.076 14.472 18.564 20.748C17.112 21.936 13.2 25.392 13.2 28.2C13.2 28.3591 13.2632 28.5117 13.3757 28.6243C13.4882 28.7368 13.6408 28.8 13.8 28.8H18V30.6C18 30.7591 18.0632 30.9117 18.1757 31.0243C18.2882 31.1368 18.4408 31.2 18.6 31.2H30.6C30.7591 31.2 30.9117 31.1368 31.0242 31.0243C31.1367 30.9117 31.1999 30.7591 31.1999 30.6V28.8H35.4C35.5591 28.8 35.7117 28.7368 35.8242 28.6243C35.9367 28.5117 36 28.3591 36 28.2C36 25.38 32.052 21.912 30.6119 20.724ZM25.8 27.6H23.4C23.2408 27.6 23.0882 27.5368 22.9757 27.4243C22.8632 27.3117 22.8 27.1591 22.8 27C22.8 26.8409 22.8632 26.6883 22.9757 26.5757C23.0882 26.4632 23.2408 26.4 23.4 26.4H25.8C25.9591 26.4 26.1117 26.4632 26.2242 26.5757C26.3367 26.6883 26.4 26.8409 26.4 27C26.4 27.1591 26.3367 27.3117 26.2242 27.4243C26.1117 27.5368 25.9591 27.6 25.8 27.6ZM24.6 25.2C24.0066 25.2 23.4266 25.0241 22.9332 24.6944C22.4399 24.3648 22.0554 23.8962 21.8283 23.3481C21.6012 22.7999 21.5418 22.1967 21.6576 21.6147C21.7733 21.0328 22.0591 20.4982 22.4786 20.0787C22.8982 19.6591 23.4327 19.3734 24.0147 19.2576C24.5966 19.1419 25.1998 19.2013 25.748 19.4284C26.2962 19.6554 26.7647 20.0399 27.0944 20.5333C27.424 21.0266 27.5999 21.6067 27.6 22.2C27.6 22.9956 27.2839 23.7587 26.7213 24.3213C26.1587 24.8839 25.3956 25.2 24.6 25.2ZM29.4 32.4C29.2408 32.4 29.0882 32.4632 28.9757 32.5757C28.8632 32.6883 28.8 32.8409 28.8 33V34.2C28.8 34.3591 28.8632 34.5117 28.9757 34.6243C29.0882 34.7368 29.2408 34.8 29.4 34.8C29.5591 34.8 29.7117 34.7368 29.8242 34.6243C29.9367 34.5117 30 34.3591 30 34.2V33C30 32.8409 29.9367 32.6883 29.8242 32.5757C29.7117 32.4632 29.5591 32.4 29.4 32.4ZM19.8 32.4C19.6408 32.4 19.4882 32.4632 19.3757 32.5757C19.2632 32.6883 19.2 32.8409 19.2 33V34.2C19.2 34.3591 19.2632 34.5117 19.3757 34.6243C19.4882 34.7368 19.6408 34.8 19.8 34.8C19.9591 34.8 20.1117 34.7368 20.2242 34.6243C20.3367 34.5117 20.4 34.3591 20.4 34.2V33C20.4 32.8409 20.3367 32.6883 20.2242 32.5757C20.1117 32.4632 19.9591 32.4 19.8 32.4ZM24.204 35.844C24.3109 35.9453 24.4526 36.0017 24.6 36.0017C24.7473 36.0017 24.889 35.9453 24.996 35.844C26.0123 34.888 26.7928 33.709 27.2759 32.4H21.924C22.4071 33.709 23.1876 34.888 24.204 35.844Z" fill="#435AF2"/>
</svg>
