<svg width="48" height="48" viewBox="0 0 48 48" fill="none" xmlns="http://www.w3.org/2000/svg">
<rect opacity="0.12" width="48" height="48" rx="24" fill="#435AF2"/>
<path d="M22.8333 14.6667V13.5C22.8333 13.1906 22.9563 12.8938 23.175 12.675C23.3938 12.4562 23.6906 12.3333 24 12.3333C24.3094 12.3333 24.6062 12.4562 24.825 12.675C25.0438 12.8938 25.1667 13.1906 25.1667 13.5V14.6667C25.1667 14.9761 25.0438 15.2728 24.825 15.4916C24.6062 15.7104 24.3094 15.8333 24 15.8333C23.6906 15.8333 23.3938 15.7104 23.175 15.4916C22.9563 15.2728 22.8333 14.9761 22.8333 14.6667ZM16.5753 18.225C16.7954 18.4375 17.0901 18.5551 17.396 18.5524C17.7019 18.5498 17.9945 18.4271 18.2108 18.2108C18.4271 17.9945 18.5498 17.7019 18.5525 17.396C18.5551 17.0901 18.4375 16.7954 18.225 16.5753L17.4002 15.7505C17.1801 15.538 16.8854 15.4204 16.5795 15.423C16.2736 15.4257 15.981 15.5484 15.7647 15.7647C15.5484 15.981 15.4257 16.2736 15.4231 16.5795C15.4204 16.8854 15.538 17.1801 15.7505 17.4002L16.5753 18.225ZM32.1667 24C32.1667 24.3094 32.2896 24.6062 32.5084 24.825C32.7272 25.0437 33.0239 25.1667 33.3333 25.1667H34.5C34.8094 25.1667 35.1062 25.0437 35.325 24.825C35.5438 24.6062 35.6667 24.3094 35.6667 24C35.6667 23.6906 35.5438 23.3938 35.325 23.175C35.1062 22.9562 34.8094 22.8333 34.5 22.8333H33.3333C33.0239 22.8333 32.7272 22.9562 32.5084 23.175C32.2896 23.3938 32.1667 23.6906 32.1667 24ZM31.4247 18.225L32.2495 17.4002C32.3609 17.2925 32.4498 17.1638 32.511 17.0215C32.5721 16.8791 32.6043 16.726 32.6056 16.5711C32.607 16.4162 32.5775 16.2626 32.5188 16.1192C32.4601 15.9758 32.3735 15.8456 32.264 15.736C32.1544 15.6265 32.0242 15.5399 31.8808 15.4812C31.7374 15.4225 31.5838 15.393 31.4289 15.3944C31.274 15.3957 31.1209 15.4279 30.9785 15.489C30.8362 15.5502 30.7075 15.6391 30.5998 15.7505L29.775 16.5753C29.5625 16.7954 29.4449 17.0901 29.4476 17.396C29.4502 17.7019 29.5729 17.9945 29.7892 18.2108C30.0055 18.4271 30.2981 18.5498 30.604 18.5524C30.9099 18.5551 31.2046 18.4375 31.4247 18.225ZM35.6667 31C35.6667 32.2377 35.175 33.4247 34.2998 34.2998C33.4247 35.175 32.2377 35.6667 31 35.6667H20.1838C18.1018 35.6667 16.105 34.8396 14.6327 33.3673C13.1604 31.8951 12.3333 29.8982 12.3333 27.8162C12.3177 26.1763 12.855 24.5789 13.8585 23.2818C14.862 21.9847 16.2732 21.0635 17.8645 20.6668C18.6039 19.2973 19.7794 18.2138 21.2045 17.5883C22.6296 16.9627 24.2228 16.8309 25.7314 17.2137C27.24 17.5965 28.5775 18.472 29.532 19.7014C30.4864 20.9308 31.0031 22.4436 31 24C30.9974 24.4269 30.9548 24.8527 30.8728 25.2717C32.2165 25.5134 33.4326 26.2193 34.3088 27.2663C35.1849 28.3133 35.6656 29.6348 35.6667 31ZM28.6667 24C28.6708 23.0822 28.4029 22.1837 27.8969 21.4179C27.3908 20.6522 26.6693 20.0535 25.8234 19.6974C24.9774 19.3414 24.0449 19.2438 23.1436 19.4172C22.2423 19.5906 21.4125 20.027 20.759 20.6715C22.0197 20.936 23.1825 21.5449 24.1179 22.4305C25.0534 23.3161 25.725 24.4438 26.058 25.6882C26.8351 25.3632 27.6659 25.1855 28.508 25.1643C28.612 24.7849 28.6654 24.3934 28.6667 24Z" fill="#435AF2"/>
</svg>
