<svg width="48" height="48" viewBox="0 0 48 48" fill="none" xmlns="http://www.w3.org/2000/svg">
<rect opacity="0.12" width="48" height="48" rx="24" fill="#435AF2"/>
<g clip-path="url(#clip0_9_1388)">
<path d="M35.633 19.2833H12.3671C12.3565 19.3115 12.353 19.3433 12.353 19.3751V33.3374C12.353 34.6186 13.3941 35.6597 14.6718 35.6597H33.3247C34.6059 35.6597 35.6471 34.6186 35.6471 33.3374V19.3751C35.6471 19.3433 35.6436 19.3115 35.633 19.2833ZM17.873 32.9809C17.873 33.175 17.7141 33.3339 17.52 33.3339H15.5294C15.3353 33.3339 15.1765 33.175 15.1765 32.9809V30.9903C15.1765 30.7927 15.3353 30.6374 15.5294 30.6374H17.52C17.7141 30.6374 17.873 30.7927 17.873 30.9903V32.9809ZM17.873 28.3362C17.873 28.5303 17.7141 28.6891 17.52 28.6891H15.5294C15.3353 28.6891 15.1765 28.5303 15.1765 28.3362V26.3456C15.1765 26.1515 15.3353 25.9927 15.5294 25.9927H17.52C17.7141 25.9927 17.873 26.1515 17.873 26.3456V28.3362ZM22.8565 32.9809C22.8565 33.175 22.6977 33.3339 22.5036 33.3339H20.513C20.3189 33.3339 20.16 33.175 20.16 32.9809V30.9903C20.16 30.7927 20.3189 30.6374 20.513 30.6374H22.5036C22.6977 30.6374 22.8565 30.7927 22.8565 30.9903V32.9809ZM22.8565 28.3362C22.8565 28.5303 22.6977 28.6891 22.5036 28.6891H20.513C20.3189 28.6891 20.16 28.5303 20.16 28.3362V26.3456C20.16 26.1515 20.3189 25.9927 20.513 25.9927H22.5036C22.6977 25.9927 22.8565 26.1515 22.8565 26.3456V28.3362ZM27.84 32.9809C27.84 33.175 27.6812 33.3339 27.4871 33.3339H25.4965C25.2988 33.3339 25.1436 33.175 25.1436 32.9809V30.9903C25.1436 30.7927 25.2988 30.6374 25.4965 30.6374H27.4871C27.6812 30.6374 27.84 30.7927 27.84 30.9903V32.9809ZM27.84 28.3362C27.84 28.5303 27.6812 28.6891 27.4871 28.6891H25.4965C25.2988 28.6891 25.1436 28.5303 25.1436 28.3362V26.3456C25.1436 26.1515 25.2988 25.9927 25.4965 25.9927H27.4871C27.6812 25.9927 27.84 26.1515 27.84 26.3456V28.3362ZM27.84 23.6915C27.84 23.8856 27.6812 24.0445 27.4871 24.0445H25.4965C25.2988 24.0445 25.1436 23.8856 25.1436 23.6915V21.7009C25.1436 21.5068 25.2988 21.348 25.4965 21.348H27.4871C27.6812 21.348 27.84 21.5068 27.84 21.7009V23.6915ZM32.8236 32.9809C32.8236 33.175 32.6647 33.3339 32.4706 33.3339H30.48C30.2824 33.3339 30.1271 33.175 30.1271 32.9809V30.9903C30.1271 30.7927 30.2824 30.6374 30.48 30.6374H32.4706C32.6647 30.6374 32.8236 30.7927 32.8236 30.9903V32.9809ZM32.8236 28.3362C32.8236 28.5303 32.6647 28.6891 32.4706 28.6891H30.48C30.2824 28.6891 30.1271 28.5303 30.1271 28.3362V26.3456C30.1271 26.1515 30.2824 25.9927 30.48 25.9927H32.4706C32.6647 25.9927 32.8236 26.1515 32.8236 26.3456V28.3362ZM32.8236 23.6915C32.8236 23.8856 32.6647 24.0445 32.4706 24.0445H30.48C30.2824 24.0445 30.1271 23.8856 30.1271 23.6915V21.7009C30.1271 21.5068 30.2824 21.348 30.48 21.348H32.4706C32.6647 21.348 32.8236 21.5068 32.8236 21.7009V23.6915ZM33.3247 13.548H31.1577V15.775C31.3553 16.015 31.4753 16.3221 31.4753 16.6574C31.4753 17.4162 30.8577 18.0339 30.0989 18.0339C29.3365 18.0339 28.7188 17.4162 28.7188 16.6574C28.7188 16.3221 28.8389 16.015 29.04 15.775V13.548H18.96V15.775C19.1577 16.015 19.2777 16.3221 19.2777 16.6574C19.2777 17.4162 18.6636 18.0339 17.9012 18.0339C17.1424 18.0339 16.5247 17.4162 16.5247 16.6574C16.5247 16.3221 16.6447 16.015 16.8424 15.775V13.548H14.6718C13.3941 13.548 12.353 14.5892 12.353 15.8703V18.5774H35.6471V15.8703C35.6471 14.5892 34.6059 13.548 33.3247 13.548ZM22.9864 17.0086H21.3523C21.1572 17.0086 20.9994 16.8506 20.9994 16.6557C20.9994 16.4608 21.1572 16.3028 21.3523 16.3028H22.9864C23.1815 16.3028 23.3393 16.4608 23.3393 16.6557C23.3393 16.8506 23.1815 17.0086 22.9864 17.0086ZM26.6464 17.0086H24.6753C24.4802 17.0086 24.3223 16.8506 24.3223 16.6557C24.3223 16.4608 24.4802 16.3028 24.6753 16.3028H26.6464C26.8415 16.3028 26.9994 16.4608 26.9994 16.6557C26.9994 16.8506 26.8415 17.0086 26.6464 17.0086Z" fill="#435AF2"/>
<path d="M17.9015 17.0086C18.0965 17.0086 18.2544 16.8506 18.2544 16.6557V12.6932C18.2544 12.4983 18.0965 12.3403 17.9015 12.3403C17.7064 12.3403 17.5485 12.4983 17.5485 12.6932V16.6557C17.5485 16.8506 17.7064 17.0086 17.9015 17.0086ZM30.0972 17.0086C30.2923 17.0086 30.4502 16.8506 30.4502 16.6557V12.6932C30.4502 12.4983 30.2923 12.3403 30.0972 12.3403C29.9022 12.3403 29.7443 12.4983 29.7443 12.6932V16.6557C29.7443 16.8506 29.9022 17.0086 30.0972 17.0086Z" fill="#435AF2"/>
</g>
<defs>
<clipPath id="clip0_9_1388">
<rect width="24" height="24" fill="white" transform="translate(12 12)"/>
</clipPath>
</defs>
</svg>
