<svg width="72" height="72" viewBox="0 0 72 72" fill="none" xmlns="http://www.w3.org/2000/svg">
<circle cx="36" cy="36" r="36" fill="#435AF2"/>
<g clip-path="url(#clip0_1394_119)">
<path d="M49.8615 23.4868C47.3115 22.3368 44.5782 21.4868 41.7198 21.0035C41.6944 20.9986 41.668 21.0017 41.6444 21.0125C41.6208 21.0232 41.6012 21.041 41.5882 21.0635C41.2382 21.6785 40.8482 22.4801 40.5748 23.1135C37.5433 22.6605 34.4613 22.6605 31.4298 23.1135C31.1254 22.4116 30.7821 21.7272 30.4015 21.0635C30.3886 21.0408 30.3691 21.0225 30.3455 21.0112C30.322 20.9999 30.2956 20.996 30.2698 21.0001C27.4132 21.4835 24.6798 22.3335 22.1282 23.4851C22.1062 23.4943 22.0876 23.51 22.0748 23.5301C16.8882 31.1551 15.4665 38.5918 16.1648 45.9351C16.1668 45.9531 16.1724 45.9705 16.1812 45.9863C16.1901 46.002 16.2021 46.0158 16.2165 46.0268C19.2438 48.2308 22.6204 49.9098 26.2048 50.9935C26.2298 51.0011 26.2565 51.0011 26.2815 50.9934C26.3065 50.9857 26.3286 50.9706 26.3448 50.9501C27.1161 49.9186 27.7997 48.8242 28.3882 47.6785C28.3963 47.6628 28.401 47.6455 28.402 47.6279C28.4029 47.6103 28.4 47.5926 28.3935 47.5762C28.3871 47.5598 28.3771 47.5449 28.3644 47.5326C28.3517 47.5204 28.3365 47.511 28.3198 47.5051C27.2432 47.0997 26.2 46.6104 25.1998 46.0418C25.1819 46.0315 25.1667 46.017 25.1558 45.9994C25.1448 45.9819 25.1384 45.9619 25.137 45.9412C25.1357 45.9206 25.1396 45.8999 25.1482 45.8811C25.1568 45.8623 25.17 45.8459 25.1865 45.8335C25.3965 45.6784 25.6065 45.5168 25.8065 45.3551C25.8245 45.3406 25.8462 45.3313 25.8691 45.3284C25.8921 45.3254 25.9154 45.3289 25.9365 45.3385C32.4815 48.2785 39.5698 48.2785 46.0382 45.3385C46.0593 45.3284 46.0829 45.3244 46.1061 45.3271C46.1294 45.3297 46.1515 45.3389 46.1698 45.3535C46.3698 45.5168 46.5782 45.6784 46.7898 45.8335C46.8065 45.8457 46.8199 45.8618 46.8288 45.8805C46.8377 45.8991 46.8418 45.9197 46.8408 45.9403C46.8399 45.9609 46.8338 45.981 46.8231 45.9987C46.8125 46.0164 46.7976 46.0312 46.7798 46.0418C45.7832 46.6151 44.7465 47.1001 43.6582 47.5035C43.6414 47.5095 43.6262 47.5191 43.6135 47.5315C43.6008 47.5439 43.5908 47.5589 43.5844 47.5755C43.5779 47.592 43.575 47.6098 43.576 47.6276C43.5769 47.6453 43.5816 47.6627 43.5898 47.6785C44.1898 48.8235 44.8765 49.9135 45.6315 50.9485C45.6472 50.9697 45.6691 50.9856 45.6941 50.9939C45.7192 51.0023 45.7462 51.0027 45.7715 50.9951C49.3621 49.9145 52.7442 48.2347 55.7748 46.0268C55.7896 46.0164 55.802 46.0031 55.8112 45.9875C55.8204 45.972 55.8262 45.9547 55.8282 45.9368C56.6615 37.4468 54.4315 30.0701 49.9132 23.5335C49.9021 23.5122 49.8837 23.4957 49.8615 23.4868ZM29.3665 41.4635C27.3965 41.4635 25.7715 39.6818 25.7715 37.4968C25.7715 35.3101 27.3648 33.5301 29.3665 33.5301C31.3832 33.5301 32.9932 35.3251 32.9615 37.4968C32.9615 39.6835 31.3682 41.4635 29.3665 41.4635ZM42.6582 41.4635C40.6865 41.4635 39.0632 39.6818 39.0632 37.4968C39.0632 35.3101 40.6548 33.5301 42.6582 33.5301C44.6748 33.5301 46.2848 35.3251 46.2532 37.4968C46.2532 39.6835 44.6765 41.4635 42.6582 41.4635Z" fill="white"/>
</g>
<defs>
<clipPath id="clip0_1394_119">
<rect width="40" height="40" fill="white" transform="translate(16 16)"/>
</clipPath>
</defs>
</svg>
