<svg width="72" height="72" viewBox="0 0 72 72" fill="none" xmlns="http://www.w3.org/2000/svg">
<circle cx="36" cy="36" r="36" fill="#435AF2"/>
<path d="M21 45.1301C24.3369 45.3175 27.2549 44.539 30.1007 42.4773C27.226 41.9871 25.2325 40.6751 24.1491 37.9647C24.987 37.8493 25.7237 38.0656 26.5904 37.7196C23.7591 36.4797 21.9245 34.6198 21.8523 31.4047C22.7479 31.4768 23.4269 32.0679 24.4958 31.9814C21.8956 29.444 21.1011 26.6758 22.7335 23.3166C25.4492 26.4307 28.6272 28.5501 32.5131 29.5449C32.7297 29.6026 32.932 29.6602 33.1486 29.7035C34.1454 29.9342 35.3299 30.4244 35.9366 30.3523C36.9767 30.2225 35.9366 29.0259 36.1967 27.4688C37.0201 22.6246 42.3649 20.4187 46.3229 23.2589C47.4786 24.0951 48.3886 24.0807 49.5298 23.5761C50.1221 23.3166 50.7288 23.0571 51.4366 22.7543C51.2777 24.1384 50.2088 24.9025 49.3565 25.9261C50.3243 26.1424 51.1044 25.8685 52 25.5801C51.6966 26.5749 50.9455 27.1372 50.2665 27.6851C49.5587 28.2473 49.2843 28.8385 49.2554 29.7612C48.822 43.7316 32.9175 54.5303 22.0401 45.9375C20.9856 45.1013 22.0112 45.9375 21 45.1301Z" fill="white"/>
</svg>
